<?xml version="1.0" encoding="UTF-8" standalone="no"?>
<svg
   version="1.0"
   width="1087.000000pt"
   height="1280.000000pt"
   viewBox="0 0 1087.000000 1280.000000"
   preserveAspectRatio="xMidYMid meet"
   id="svg150"
   sodipodi:docname="cool_ass_skeleton.svg"
   inkscape:version="1.1.1 (3bf5ae0d25, 2021-09-20)"
   xmlns:inkscape="http://www.inkscape.org/namespaces/inkscape"
   xmlns:sodipodi="http://sodipodi.sourceforge.net/DTD/sodipodi-0.dtd"
   xmlns="http://www.w3.org/2000/svg"
   xmlns:svg="http://www.w3.org/2000/svg">
  <defs
     id="defs154" />
  <sodipodi:namedview
     id="namedview152"
     pagecolor="#505050"
     bordercolor="#eeeeee"
     borderopacity="1"
     inkscape:pageshadow="0"
     inkscape:pageopacity="0"
     inkscape:pagecheckerboard="0"
     inkscape:document-units="pt"
     showgrid="false"
     inkscape:zoom="0.51152344"
     inkscape:cx="317.6785"
     inkscape:cy="939.35089"
     inkscape:window-width="2272"
     inkscape:window-height="1131"
     inkscape:window-x="423"
     inkscape:window-y="252"
     inkscape:window-maximized="0"
     inkscape:current-layer="svg150" />
  <metadata
     id="metadata2">
Created by potrace 1.15, written by Peter Selinger 2001-2017
</metadata>
  <g
     transform="translate(0.000000,1280.000000) scale(0.100000,-0.100000)"
     fill="#000000"
     stroke="none"
     id="g148"
     style="fill:#512bd4;fill-opacity:1">
    <path
       d="M4050 12794 c-318 -29 -640 -112 -1210 -313 -498 -176 -839 -269 -1080 -296 -59 -7 -70 -12 -116 -54 -47 -43 -83 -66 -283 -181 -41 -24 -93 -60 -115 -80 -29 -25 -61 -42 -106 -55 -167 -46 -612 -308 -831 -491 -176 -147 -309 -316 -309 -394 0 -15 45 -107 106 -216 315 -563 508 -926 1027 -1934 290 -564 430 -829 608 -1151 59 -108 110 -201 111 -207 2 -5 -36 -55 -85 -111 -64 -74 -94 -101 -111 -101 -18 0 -33 -17 -71 -77 -95 -154 -236 -328 -470 -578 -299 -319 -461 -529 -560 -725 -135 -268 -161 -715 -65 -1117 76 -313 242 -595 510 -863 167 -167 347 -300 610 -451 404 -231 902 -420 1450 -549 52 -13 118 -28 145 -35 49 -12 51 -12 102 21 116 74 133 84 144 84 6 0 42 -17 81 -37 l69 -38 266 -425 c146 -234 273 -433 282 -442 9 -9 38 -23 65 -31 l49 -14 60 -169 c79 -226 103 -327 112 -463 l7 -113 42 -57 c24 -31 80 -109 127 -175 173 -244 292 -367 450 -464 l71 -43 132 12 133 12 53 -42 c72 -57 202 -118 400 -186 201 -70 337 -130 446 -195 l83 -50 413 20 c227 11 483 27 568 35 363 33 651 110 1083 288 l148 61 90 157 90 158 -26 51 c-50 98 -65 186 -65 369 1 91 5 198 10 236 6 39 13 196 16 350 4 200 9 290 19 316 8 20 19 75 26 122 12 84 12 85 43 91 17 4 184 36 371 71 716 135 1211 222 1421 250 136 17 183 44 230 129 82 149 67 388 -37 586 -86 166 -182 262 -275 276 -62 9 -205 -14 -302 -48 -176 -62 -848 -352 -1361 -587 -85 -39 -156 -69 -159 -67 -5 6 -57 210 -78 306 -9 41 -21 123 -28 183 -30 252 46 447 205 527 56 29 58 31 87 107 38 98 139 413 147 457 7 33 9 27 -340 1126 -53 168 -97 307 -98 310 -1 3 55 61 125 130 69 69 159 170 199 225 274 372 512 881 653 1399 78 285 106 460 106 654 l-1 127 -74 94 c-41 52 -75 88 -75 82 0 -7 -8 -11 -18 -9 -11 2 -27 -3 -36 -11 -13 -11 -22 -12 -34 -4 -14 9 -27 1 -74 -45 l-58 -56 -23 22 c-13 12 -26 22 -29 22 -3 0 -17 -18 -32 -41 -21 -30 -33 -40 -50 -37 -15 2 -39 -11 -69 -35 -25 -20 -54 -37 -64 -37 -10 0 -43 -25 -73 -55 -40 -40 -57 -52 -66 -44 -13 11 -63 -26 -211 -158 l-70 -63 -9 31 -9 30 -59 -71 -60 -71 -18 23 -18 23 -61 -63 c-51 -52 -67 -63 -90 -60 -24 2 -40 -9 -94 -62 -61 -61 -66 -63 -82 -47 -16 16 -20 14 -75 -40 -56 -55 -58 -56 -77 -39 -20 18 -21 17 -77 -43 -31 -34 -60 -61 -64 -61 -4 0 -14 16 -22 35 l-13 34 -104 -65 c-64 -41 -116 -67 -135 -68 -19 -1 -53 -18 -89 -44 l-57 -43 -12 26 c-14 31 -19 31 -49 -1 -13 -14 -54 -53 -91 -86 l-67 -59 -24 47 -24 47 -43 -52 c-24 -28 -47 -51 -51 -51 -5 0 -23 13 -41 29 l-33 29 -39 -34 c-46 -40 -52 -41 -66 -13 -11 20 -13 19 -61 -26 -51 -48 -69 -50 -69 -10 0 43 -30 39 -82 -12 l-48 -47 0 30 c0 40 -5 44 -47 32 -26 -7 -42 -6 -59 2 -19 11 -29 9 -66 -12 -34 -20 -47 -23 -66 -15 -16 7 -33 6 -62 -3 -35 -12 -42 -11 -58 3 -17 16 -22 15 -70 -5 -48 -20 -53 -21 -69 -6 -15 15 -20 15 -68 -7 -52 -23 -53 -23 -72 -3 -20 19 -20 19 -83 -6 -35 -14 -65 -26 -67 -26 -2 0 -3 14 -3 31 l0 31 -45 -6 c-32 -5 -50 -3 -68 9 -23 15 -29 14 -91 -9 l-67 -25 7 33 c7 39 -4 50 -38 37 -17 -7 -28 -4 -44 10 -20 19 -22 18 -95 -6 -92 -30 -89 -30 -89 0 0 35 -26 42 -54 16 -22 -20 -24 -21 -60 -6 -37 16 -40 15 -103 -14 -36 -17 -67 -31 -69 -31 -2 0 1 12 7 27 7 20 7 29 -3 34 -7 4 -22 14 -33 22 -18 14 -15 16 39 22 74 10 228 0 536 -32 289 -30 574 -34 710 -10 83 15 84 15 118 -8 l35 -24 31 25 c26 21 45 25 116 29 47 2 109 9 139 15 74 14 76 13 79 -17 2 -31 7 -37 21 -28 6 3 11 19 11 35 0 27 3 29 78 45 222 48 474 139 702 255 287 146 741 433 1145 725 437 315 541 382 611 394 l33 6 -41 53 c-49 63 -66 65 -190 26 -194 -61 -399 -192 -943 -604 -143 -108 -293 -220 -333 -249 l-73 -52 -79 163 c-154 320 -237 568 -375 1116 -80 323 -132 545 -175 757 -47 233 -130 586 -169 718 -16 53 -25 97 -20 97 18 0 21 74 5 148 -9 42 -25 167 -36 277 -12 110 -27 245 -35 300 -8 55 -22 156 -30 225 -21 160 -44 274 -65 325 -27 62 -97 141 -185 208 -294 222 -1024 416 -1800 477 -137 11 -688 21 -765 14z m2818 -1345 c-2 -6 -8 -10 -13 -10 -5 0 -11 4 -13 10 -2 6 4 11 13 11 9 0 15 -5 13 -11z m196 -1854 c42 -203 90 -422 105 -485 16 -63 28 -116 26 -118 -2 -2 -15 16 -28 40 -50 85 -85 234 -112 468 -10 86 -21 138 -36 169 -16 31 -24 72 -30 145 -5 55 -10 121 -13 146 -10 94 14 -4 88 -365z m-4990 -497 c5 -21 3 -28 -9 -28 -15 0 -22 40 -8 53 8 9 9 8 17 -25z m88 -140 c29 -18 55 -33 57 -35 2 -1 -1 -9 -7 -16 -14 -16 -6 -28 14 -20 10 4 14 -3 14 -21 0 -30 -25 -36 -32 -8 -3 9 -44 37 -92 61 -83 43 -86 45 -64 58 35 19 52 16 110 -19z m5228 -568 c82 -261 150 -480 150 -487 0 -18 -118 -93 -135 -87 -8 4 -18 18 -21 33 -3 14 -17 61 -30 104 -26 84 -31 146 -13 164 8 8 6 31 -10 85 -14 49 -26 143 -36 283 -18 227 -19 237 -46 275 -9 14 -20 52 -23 85 -4 41 -3 54 4 40 5 -11 77 -234 160 -495z m-5117 433 c-7 -2 -21 -2 -30 0 -10 3 -4 5 12 5 17 0 24 -2 18 -5z m154 -206 c30 -33 53 -68 53 -80 0 -15 10 -27 32 -37 18 -7 62 -42 96 -76 58 -56 63 -64 52 -84 -7 -12 -8 -26 -3 -30 4 -4 53 -24 108 -45 55 -21 122 -52 150 -69 l50 -31 -60 -12 c-33 -7 -86 -18 -117 -24 -43 -8 -83 -27 -164 -79 -132 -86 -178 -102 -229 -78 -33 15 -32 28 3 28 42 0 114 41 139 79 70 105 -25 388 -202 606 -25 30 -45 64 -45 76 0 16 10 9 42 -33 23 -29 65 -79 95 -111z m7072 -121 c-9 -8 -10 -7 -5 7 3 10 7 26 7 35 1 9 4 6 6 -7 3 -13 -1 -28 -8 -35z m-6149 -393 c149 -38 243 -45 328 -24 94 23 152 -3 152 -69 0 -21 -6 -42 -12 -48 -39 -31 -164 -21 -335 26 -83 22 -118 26 -228 26 -147 0 -220 -16 -291 -65 -45 -30 -94 -38 -112 -16 -6 6 -13 24 -17 38 -12 50 73 121 193 160 73 24 142 18 322 -28z m1023 -711 c100 -49 111 -51 103 -18 -4 17 -1 26 10 30 26 10 142 7 192 -5 54 -13 77 -29 44 -29 -12 0 -42 -18 -66 -40 -49 -45 -72 -49 -110 -19 -24 19 -30 20 -76 8 -39 -10 -53 -10 -62 -1 -18 18 -74 14 -118 -8 -51 -26 -59 -25 -70 5 -12 32 -34 41 -67 26 -19 -9 -33 -9 -60 1 -31 11 -38 10 -85 -16 l-51 -29 6 31 c4 17 2 34 -4 37 -11 7 -67 -25 -94 -55 -25 -28 -55 -26 -55 3 0 13 -6 31 -13 41 -12 16 -17 17 -38 6 -13 -7 -36 -24 -51 -38 l-28 -25 -35 19 c-39 21 -27 24 -123 -32 l-28 -17 -52 54 c-29 30 -49 46 -46 36 5 -13 -4 -29 -27 -53 -36 -38 -49 -42 -49 -18 0 14 -11 16 -70 12 l-70 -4 0 37 c0 20 6 42 14 48 8 7 124 17 305 27 160 8 358 19 439 24 81 4 192 7 248 6 96 -1 104 -3 187 -44z m522 -31 c-7 -23 -25 -29 -25 -8 0 14 21 39 28 33 2 -3 1 -14 -3 -25z m-125 9 c0 -5 -2 -10 -4 -10 -3 0 -8 5 -11 10 -3 6 -1 10 4 10 6 0 11 -4 11 -10z m-1625 -32 c-11 -35 -44 -85 -60 -91 -8 -4 -32 11 -57 34 -24 21 -46 39 -50 39 -12 0 -21 -44 -9 -48 17 -6 13 -20 -8 -32 -13 -7 -28 -7 -46 0 -23 9 -32 6 -69 -25 l-43 -35 -38 20 c-22 11 -50 20 -64 20 -13 0 -67 -23 -119 -51 -84 -45 -96 -49 -104 -35 -9 15 -12 15 -42 -4 -37 -23 -87 -26 -136 -8 -33 11 -34 11 -87 -48 -49 -54 -54 -58 -67 -41 -7 9 -20 17 -29 17 -21 0 -75 -46 -92 -80 -14 -27 -17 -28 -76 -23 -71 7 -86 -5 -63 -49 13 -26 13 -29 -2 -35 -10 -4 -40 1 -67 11 -49 17 -49 17 -73 -5 -13 -12 -33 -42 -45 -65 -22 -47 -40 -56 -114 -59 -47 -2 -51 -4 -78 -49 -27 -43 -30 -45 -43 -29 -13 17 -16 16 -42 -12 -15 -17 -53 -43 -84 -58 -182 -89 -488 -581 -488 -786 l0 -41 -36 40 c-34 38 -36 42 -29 90 40 288 627 873 1139 1135 158 80 258 109 352 102 72 -5 77 -4 181 43 201 89 414 151 588 170 113 12 107 13 100 -12z m1645 -18 c0 -15 -7 -20 -27 -20 -25 0 -26 0 -8 20 10 11 22 20 27 20 4 0 8 -9 8 -20z m3196 -766 l120 -7 99 -176 c55 -97 171 -300 258 -451 l159 -275 -12 -135 c-23 -258 -59 -383 -151 -519 -29 -42 -46 -71 -38 -65 8 6 59 45 115 86 l100 76 132 -253 c73 -139 132 -259 132 -267 0 -9 -25 -112 -56 -229 -87 -337 -81 -319 -110 -319 -53 0 -183 -33 -261 -66 l-82 -35 -96 57 c-78 47 -95 61 -95 81 0 39 -42 103 -67 103 -20 0 -22 7 -29 80 l-7 80 -35 0 c-34 0 -35 1 -29 35 5 30 3 35 -13 35 -14 0 -21 10 -25 38 -11 64 -15 70 -30 43 l-13 -25 -16 33 c-13 24 -21 30 -29 22 -9 -7 -20 2 -40 34 -30 48 -31 48 -125 66 -63 12 -241 8 -274 -6 -14 -5 -2 -17 55 -54 39 -27 110 -78 157 -115 47 -37 102 -78 122 -89 32 -19 38 -28 44 -72 26 -194 102 -277 336 -364 56 -21 132 -51 168 -65 l65 -27 32 -82 c67 -172 82 -267 118 -792 4 -49 9 -97 11 -106 3 -12 -52 -42 -243 -129 -225 -104 -247 -112 -257 -96 -32 52 -35 53 -36 4 0 -45 -1 -46 -46 -65 l-46 -18 6 -52 c8 -65 12 -65 -153 -18 l-123 36 -53 -45 c-68 -58 -82 -63 -195 -68 l-93 -3 -22 85 c-32 122 -61 204 -105 295 -56 114 -56 114 -74 90 -21 -27 -20 -69 5 -188 41 -193 26 -282 -56 -338 -32 -22 -112 -49 -145 -49 -5 0 -39 38 -76 85 -36 47 -68 85 -69 83 -2 -2 -20 -44 -40 -94 l-36 -92 -66 -12 c-67 -13 -192 -7 -239 10 -14 6 -24 17 -24 30 0 19 -59 119 -71 120 -3 0 -15 -20 -26 -44 -21 -42 -24 -44 -100 -65 -95 -25 -96 -25 -135 -5 -26 13 -35 14 -51 4 -28 -17 -32 -6 -47 131 -15 137 -34 173 -43 81 -6 -68 -28 -118 -56 -127 -24 -7 -232 75 -242 96 -4 8 -13 56 -19 108 -14 106 -32 177 -54 206 -14 19 -16 19 -32 3 -16 -16 -16 -22 9 -116 15 -54 27 -105 27 -114 0 -8 -16 -20 -38 -27 -33 -11 -59 -10 -177 8 -76 11 -140 22 -142 24 -1 2 4 28 12 58 45 162 44 215 -10 325 -21 43 -25 65 -24 135 l0 84 125 109 c77 67 123 114 120 122 -3 9 18 29 57 55 126 84 164 133 207 263 24 73 78 173 105 196 17 14 19 29 5 50 -8 12 -30 -6 -117 -91 -59 -58 -134 -129 -167 -158 -57 -50 -59 -51 -73 -31 -15 22 -63 28 -63 7 0 -8 -14 -11 -45 -9 -36 3 -54 -2 -97 -28 -40 -25 -59 -31 -85 -27 -30 5 -43 -1 -103 -48 -49 -37 -76 -52 -90 -48 -11 3 -31 -2 -45 -11 -23 -15 -25 -15 -35 4 -11 20 -12 20 -47 -9 -29 -24 -39 -27 -53 -18 -14 8 -38 5 -108 -16 l-90 -27 -42 24 c-35 20 -47 22 -72 14 -22 -8 -39 -6 -75 7 -44 17 -45 19 -40 52 6 32 4 34 -21 33 -42 -3 -43 -2 -27 30 24 46 18 65 -34 122 l-49 53 30 43 c38 56 26 75 -26 42 l-36 -22 -16 38 c-15 35 -15 41 1 73 l17 36 -31 -29 c-17 -16 -32 -28 -34 -25 -3 2 -34 45 -70 95 l-65 91 19 93 c19 92 24 103 63 147 l19 22 47 -34 c26 -19 50 -35 52 -35 3 0 19 18 37 40 l33 41 -81 84 c-49 53 -91 109 -111 148 -25 51 -40 69 -80 92 l-48 28 64 96 c35 52 62 97 60 99 -2 2 -21 -7 -43 -20 -21 -14 -44 -28 -52 -33 -12 -7 -13 3 -8 61 8 97 39 189 112 335 106 214 242 393 293 387 21 -3 27 4 45 47 l20 50 201 0 c111 1 278 6 373 13 95 7 265 12 378 12 138 0 211 4 224 12 23 14 66 -14 80 -54 16 -45 65 -68 144 -68 68 0 68 0 128 53 33 28 108 82 167 120 122 77 395 217 423 217 10 0 56 34 101 76 80 73 186 143 293 193 156 73 452 159 665 191 128 20 211 23 386 14z m373 -160 c-14 -18 -24 -11 -15 11 3 9 11 13 16 10 8 -5 7 -11 -1 -21z m130 -143 c-13 -16 -28 -30 -32 -30 -4 -1 4 15 19 34 15 20 29 33 32 31 2 -3 -6 -18 -19 -35z m-2742 -433 c-3 -7 -5 -2 -5 12 0 14 2 19 5 13 2 -7 2 -19 0 -25z m-4940 -105 c4 -9 -1 -34 -10 -57 -9 -23 -48 -122 -86 -221 -57 -146 -70 -173 -71 -142 0 54 26 175 59 270 16 45 31 94 35 109 3 15 11 39 16 53 8 22 13 24 30 15 12 -6 24 -18 27 -27z m-123 -540 c4 -54 9 -125 11 -158 4 -40 2 -53 -3 -40 -5 11 -12 65 -16 120 -4 55 -9 117 -12 138 -3 20 -2 37 4 37 5 0 12 -44 16 -97z m-50 -60 c9 -55 7 -113 -3 -113 -15 0 -21 28 -21 91 0 66 14 79 24 22z m121 -328 c3 -55 3 -97 0 -93 -9 9 -33 297 -25 304 6 7 14 -67 25 -211z m15 164 c0 -11 -4 -17 -10 -14 -5 3 -10 13 -10 21 0 8 5 14 10 14 6 0 10 -9 10 -21z m70 -219 c11 -121 16 -150 27 -146 11 5 12 -4 7 -43 -4 -31 -2 -51 5 -55 6 -4 11 -17 11 -29 0 -15 3 -18 8 -9 13 20 36 -88 25 -117 -8 -21 -4 -30 32 -66 23 -23 60 -79 82 -124 23 -45 52 -91 67 -102 14 -11 54 -62 88 -112 35 -51 91 -120 126 -154 34 -34 62 -70 62 -79 0 -30 -82 55 -382 396 -68 77 -75 91 -82 139 -4 30 -14 70 -23 90 -29 67 -62 205 -51 212 6 4 7 16 3 30 -7 22 -8 22 -21 4 -13 -17 -14 -16 -14 13 0 25 3 30 16 25 12 -4 15 -2 12 8 -3 8 -11 14 -18 14 -19 0 -29 44 -34 150 l-5 90 14 -90 c19 -123 37 -165 30 -70 -3 39 -8 87 -11 107 -6 35 -1 68 9 68 3 0 10 -68 17 -150z m3060 21 c0 -49 7 -88 25 -135 35 -92 69 -157 94 -180 33 -30 26 -50 -26 -69 -41 -15 -48 -16 -55 -3 -19 34 -42 48 -68 43 -22 -5 -37 5 -97 61 -106 101 -135 172 -93 225 27 34 178 127 208 127 8 0 12 -20 12 -69z m-3120 -91 c0 -11 -4 -20 -10 -20 -5 0 -10 9 -10 20 0 11 5 20 10 20 6 0 10 -9 10 -20z m2239 -157 c-6 -21 -15 -67 -22 -103 -11 -61 -20 -79 -41 -80 -5 0 -2 8 7 18 10 10 17 29 16 43 0 22 -1 23 -9 4 -5 -11 -9 -14 -9 -7 -1 7 -5 11 -10 8 -5 -3 -12 -35 -16 -71 -3 -36 -11 -67 -16 -70 -5 -4 -9 -1 -9 6 0 10 -3 10 -12 1 -21 -21 -28 -13 -24 31 1 25 7 41 14 40 7 -2 30 55 54 132 l43 136 22 -25 c18 -21 20 -30 12 -63z m-2119 15 c0 -25 -3 -29 -10 -18 -13 20 -13 50 0 50 6 0 10 -15 10 -32z m1990 -318 c0 -16 -4 -30 -9 -30 -10 0 -21 47 -13 55 13 13 22 3 22 -25z m-37 -123 c9 -34 34 -136 56 -227 22 -91 69 -256 105 -368 98 -304 117 -423 70 -430 -19 -3 -24 9 -52 115 -36 133 -87 354 -167 713 -30 135 -57 256 -61 270 -5 24 -5 24 14 7 10 -10 26 -46 35 -80z m1510 -1168 l86 -61 -6 -47 c-11 -91 34 -178 102 -201 39 -13 59 -8 94 20 l23 20 -36 44 -36 45 61 85 c33 48 68 86 77 86 36 0 102 -44 176 -119 l79 -79 -13 -101 -13 -100 -29 20 -28 20 -10 -26 c-5 -14 -10 -30 -10 -33 0 -14 108 -258 179 -405 72 -147 130 -290 151 -366 10 -39 12 -41 51 -41 l41 0 -7 38 c-4 20 -9 114 -12 208 l-4 170 60 26 60 26 116 -24 116 -25 29 21 c26 19 35 20 92 11 35 -6 108 -12 162 -15 55 -3 104 -10 110 -16 7 -7 3 -23 -13 -50 -27 -49 -18 -51 64 -9 l60 30 130 -38 129 -38 13 -44 c7 -24 15 -46 18 -49 3 -3 32 21 65 53 l60 59 124 4 c148 5 190 -1 222 -33 l25 -25 71 45 c81 50 133 58 193 29 50 -23 72 -53 109 -144 l34 -83 7 49 c25 191 35 204 188 229 l78 12 36 -43 c19 -24 42 -44 49 -44 8 0 35 16 61 36 71 55 108 68 203 71 188 7 342 27 375 48 19 11 175 49 180 43 1 -2 8 -14 16 -28 l13 -25 6 30 c4 24 11 31 33 33 32 4 30 19 27 -198 -1 -91 3 -235 10 -320 l12 -155 -46 -70 c-101 -152 -109 -241 -39 -400 67 -151 85 -247 61 -329 -18 -61 -131 -170 -244 -234 -208 -118 -301 -146 -465 -140 -138 5 -176 21 -300 128 -122 106 -146 104 -202 -12 -80 -168 -150 -228 -296 -254 -105 -19 -403 -18 -541 1 -61 9 -115 13 -119 10 -5 -3 -153 68 -328 156 -383 195 -448 227 -535 263 l-66 28 19 56 c24 71 24 80 -3 87 -74 18 -127 6 -184 -43 -26 -22 -76 -54 -109 -71 -62 -30 -62 -30 -121 -15 -54 14 -64 21 -114 80 -30 36 -128 135 -218 221 -89 86 -173 174 -186 197 -13 22 -27 66 -31 96 -18 153 -70 368 -145 602 -22 69 -40 128 -40 132 0 5 74 46 85 46 3 0 5 -16 5 -36 0 -20 10 -52 21 -71 21 -33 21 -37 6 -68 -16 -33 -15 -34 34 -127 28 -51 61 -124 73 -161 13 -37 25 -70 28 -72 2 -3 39 33 81 79 54 59 72 86 62 90 -27 10 -47 66 -43 117 6 63 -2 77 -38 61 -14 -7 -28 -11 -31 -9 -2 3 5 28 16 56 19 52 16 60 -21 40 -30 -16 -33 -4 -9 34 l21 35 -27 17 c-16 10 -61 42 -100 73 l-73 55 -19 -24 -19 -24 -22 27 c-17 23 -25 26 -40 18 -16 -9 -30 -2 -77 33 -32 24 -84 62 -115 85 -63 46 -100 89 -122 144 -14 34 -14 38 5 62 11 14 24 26 29 26 5 0 34 -40 66 -90 44 -70 62 -90 79 -90 16 0 25 -8 29 -24 4 -18 15 -25 43 -29 33 -6 42 -3 67 22 l28 29 -17 46 c-17 45 -18 46 -41 31 -27 -18 -30 -14 -39 48 -5 35 -14 52 -31 64 -15 9 -23 22 -20 32 2 9 8 31 11 49 l7 34 -32 -17 c-18 -9 -34 -14 -37 -11 -3 3 7 26 22 52 l28 48 -21 14 c-20 13 -21 16 -6 44 20 38 12 58 -22 58 -44 0 -97 -65 -134 -164 -18 -47 -36 -86 -39 -86 -4 0 -15 6 -24 13 -42 32 42 205 147 300 31 28 101 66 122 67 6 0 49 -28 97 -61z"
       id="path4"
       style="fill:#512bd4;fill-opacity:1" />
    <path
       d="M7710 6465 c0 -20 5 -25 25 -25 26 0 29 7 19 34 -10 27 -44 20 -44 -9z"
       id="path6"
       style="fill:#512bd4;fill-opacity:1" />
    <path
       d="M7802 6454 c9 -9 21 -13 27 -10 20 13 11 26 -16 26 -25 0 -26 -1 -11 -16z"
       id="path8"
       style="fill:#512bd4;fill-opacity:1" />
    <path
       d="M7528 6429 c-39 -29 -36 -49 5 -49 39 0 57 15 57 47 0 29 -25 30 -62 2z"
       id="path10"
       style="fill:#512bd4;fill-opacity:1" />
    <path
       d="M7609 6316 c-116 -42 -324 -151 -423 -224 -45 -33 -106 -104 -106 -124 0 -24 47 -2 95 46 108 109 220 175 247 148 23 -23 64 -11 193 57 126 67 155 92 123 112 -22 14 -59 10 -129 -15z"
       id="path12"
       style="fill:#512bd4;fill-opacity:1" />
    <path
       d="M7838 6278 c-46 -16 -32 -25 30 -17 31 4 68 8 82 9 23 1 23 2 5 10 -27 12 -84 11 -117 -2z"
       id="path14"
       style="fill:#512bd4;fill-opacity:1" />
    <path
       d="M6759 6107 c-74 -118 -119 -238 -119 -316 l0 -45 46 44 c58 57 78 96 124 243 l38 117 -32 0 c-26 0 -35 -7 -57 -43z"
       id="path16"
       style="fill:#512bd4;fill-opacity:1" />
    <path
       d="M7739 6140 c-31 -4 -81 -20 -112 -35 -160 -82 -463 -353 -539 -485 -57 -97 -51 -139 32 -235 51 -59 71 -99 104 -207 14 -48 38 -101 52 -118 38 -44 197 -118 422 -195 214 -73 207 -72 366 -34 100 24 149 53 217 127 118 127 178 300 186 538 7 179 -6 261 -58 364 -58 115 -148 186 -305 240 -93 32 -269 51 -365 40z"
       id="path18"
       style="fill:#512bd4;fill-opacity:1" />
    <path
       d="M6989 5848 c-50 -69 -88 -152 -114 -250 -28 -106 -64 -184 -99 -217 l-24 -23 -49 37 c-48 37 -48 37 -135 33 -79 -3 -90 -6 -130 -35 -23 -18 -58 -40 -75 -50 -38 -19 -42 -38 -12 -53 21 -12 36 -4 122 63 18 14 42 22 70 22 23 0 52 6 65 13 28 16 48 6 114 -56 48 -44 49 -45 87 -34 21 7 48 12 60 12 13 0 21 6 21 18 0 9 7 29 15 45 8 15 21 39 29 53 12 22 12 34 0 82 -21 88 -18 108 40 250 30 72 52 132 50 132 -2 0 -18 -19 -35 -42z"
       id="path20"
       style="fill:#512bd4;fill-opacity:1" />
    <path
       d="M6167 5743 c-6 -35 -3 -41 40 -85 26 -27 56 -48 66 -48 18 0 19 5 13 53 -6 39 -15 60 -39 85 -43 45 -73 43 -80 -5z"
       id="path22"
       style="fill:#512bd4;fill-opacity:1" />
    <path
       d="M4709 5656 c-172 -31 -247 -63 -309 -133 -113 -127 -277 -416 -301 -528 -11 -55 -10 -64 8 -105 90 -202 577 -540 841 -585 52 -8 132 12 260 66 136 58 196 78 277 90 161 25 216 83 390 414 32 61 73 132 92 158 31 44 33 52 28 100 -17 155 -20 162 -142 318 l-113 145 -157 29 c-204 36 -337 44 -393 21 -50 -20 -120 -20 -185 -1 -71 22 -206 27 -296 11z"
       id="path24"
       style="fill:#512bd4;fill-opacity:1" />
    <path
       d="M6060 5527 c0 -15 16 -49 35 -76 53 -74 49 -108 -20 -180 -56 -59 -67 -89 -40 -111 13 -11 22 -7 53 23 45 44 60 45 112 11 30 -20 46 -24 70 -19 30 7 32 9 25 43 -9 49 -12 54 -117 189 -121 156 -118 154 -118 120z"
       id="path26"
       style="fill:#512bd4;fill-opacity:1" />
    <path
       d="M6420 5151 c0 -14 10 -21 37 -26 80 -15 115 -48 172 -162 17 -34 36 -65 42 -69 17 -10 59 42 59 73 0 20 -3 24 -17 18 -45 -19 -57 -12 -100 69 -60 112 -65 116 -135 116 -50 0 -58 -3 -58 -19z"
       id="path28"
       style="fill:#512bd4;fill-opacity:1" />
    <path
       d="M6241 4890 c-63 -96 -82 -160 -88 -280 -4 -84 -2 -113 11 -144 14 -34 16 -64 10 -206 -8 -188 1 -217 36 -123 43 114 60 212 53 296 -5 63 -10 80 -26 88 -16 9 -18 17 -12 52 3 23 15 101 26 172 11 72 24 145 29 164 5 19 8 37 5 39 -2 2 -22 -24 -44 -58z"
       id="path30"
       style="fill:#512bd4;fill-opacity:1" />
    <path
       d="M7355 4875 c-5 -2 -23 -6 -40 -10 -29 -6 -28 -7 50 -58 98 -62 178 -96 228 -97 33 0 37 3 37 25 0 14 -6 25 -14 25 -7 0 -34 16 -60 35 -78 60 -162 93 -201 80z"
       id="path32"
       style="fill:#512bd4;fill-opacity:1" />
    <path
       d="M6884 4821 c-71 -69 -112 -80 -197 -52 -79 25 -91 26 -120 6 -19 -12 -29 -13 -54 -3 -25 10 -35 9 -49 -3 -57 -47 -86 -223 -88 -544 -1 -272 8 -319 73 -378 35 -32 171 -117 186 -117 4 0 21 10 37 22 28 19 35 20 75 10 65 -18 74 -16 170 33 48 25 118 52 155 61 64 16 73 16 150 -1 133 -28 142 -28 192 -6 64 28 81 68 72 171 -16 179 -60 286 -230 553 -139 220 -214 297 -287 297 -27 0 -45 -11 -85 -49z"
       id="path34"
       style="fill:#512bd4;fill-opacity:1" />
    <path
       d="M5972 4802 c-17 -25 -39 -76 -52 -124 -47 -176 -34 -162 -269 -289 -113 -61 -217 -120 -231 -129 -22 -15 -28 -16 -44 -5 -23 18 -43 9 -61 -26 -26 -49 -22 -51 68 -44 177 14 218 29 318 121 31 29 72 58 92 65 32 11 41 24 96 139 34 69 61 130 61 134 0 4 16 42 36 86 27 59 34 83 26 96 -8 15 -13 12 -40 -24z"
       id="path36"
       style="fill:#512bd4;fill-opacity:1" />
    <path
       d="M8332 4598 c-29 -18 -32 -24 -27 -52 16 -77 29 -84 71 -39 31 33 39 65 24 92 -13 26 -25 25 -68 -1z"
       id="path38"
       style="fill:#512bd4;fill-opacity:1" />
    <path
       d="M5875 4387 c-49 -51 -85 -139 -92 -223 -6 -61 8 -111 28 -99 5 4 9 31 9 61 0 74 18 106 105 189 65 61 73 73 65 93 -16 39 -66 30 -115 -21z"
       id="path40"
       style="fill:#512bd4;fill-opacity:1" />
    <path
       d="M8680 4353 c0 -10 4 -25 9 -32 7 -10 3 -24 -11 -44 -32 -45 -26 -157 8 -157 31 0 84 168 70 223 -5 23 -12 27 -41 27 -27 0 -35 -4 -35 -17z"
       id="path42"
       style="fill:#512bd4;fill-opacity:1" />
    <path
       d="M4278 4345 c-3 -3 -3 -17 0 -30 5 -27 42 -36 42 -11 0 35 -24 59 -42 41z"
       id="path44"
       style="fill:#512bd4;fill-opacity:1" />
    <path
       d="M4367 4323 c-4 -3 -7 -17 -7 -29 0 -22 3 -23 43 -18 51 7 88 -8 147 -62 32 -30 45 -35 77 -32 l38 3 -60 41 c-115 79 -216 120 -238 97z"
       id="path46"
       style="fill:#512bd4;fill-opacity:1" />
    <path
       d="M5169 4228 c-49 -39 -14 -72 47 -43 33 15 47 45 22 45 -7 0 -22 3 -33 6 -11 3 -27 -1 -36 -8z"
       id="path48"
       style="fill:#512bd4;fill-opacity:1" />
    <path
       d="M5094 4184 c-4 -10 -9 -22 -11 -26 -2 -5 0 -8 5 -8 10 0 24 41 17 48 -3 3 -8 -4 -11 -14z"
       id="path50"
       style="fill:#512bd4;fill-opacity:1" />
    <path
       d="M7687 3835 c-3 -34 -14 -70 -25 -84 -18 -25 -85 -63 -170 -97 -24 -10 -45 -21 -48 -25 -2 -4 12 -19 33 -33 92 -63 197 -3 229 130 17 75 18 125 1 149 -12 16 -15 12 -20 -40z"
       id="path52"
       style="fill:#512bd4;fill-opacity:1" />
    <path
       d="M6180 3803 c0 -111 40 -285 73 -321 20 -22 28 -23 87 -18 169 17 170 17 170 40 0 32 -19 46 -63 46 -57 0 -104 26 -132 75 -14 23 -25 49 -25 58 0 20 -15 22 -26 5 -5 -7 -22 18 -46 67 -32 68 -38 74 -38 48z"
       id="path54"
       style="fill:#512bd4;fill-opacity:1" />
    <path
       d="M7048 3615 c-5 -57 -1 -83 19 -140 27 -78 30 -89 38 -157 4 -27 9 -48 13 -48 10 0 42 82 42 109 0 13 -12 46 -27 75 -14 28 -38 91 -53 141 l-27 89 -5 -69z"
       id="path56"
       style="fill:#512bd4;fill-opacity:1" />
    <path
       d="M5948 3572 c-16 -2 -28 -8 -28 -13 0 -12 57 -12 65 0 7 13 -5 17 -37 13z"
       id="path58"
       style="fill:#512bd4;fill-opacity:1" />
    <path
       d="M8030 3532 c0 -5 7 -15 15 -22 8 -7 15 -8 15 -2 0 5 -7 15 -15 22 -8 7 -15 8 -15 2z"
       id="path60"
       style="fill:#512bd4;fill-opacity:1" />
    <path
       d="M5876 3288 c-109 -9 -121 -12 -138 -34 -11 -13 -30 -24 -42 -24 -12 0 -30 -6 -40 -13 -15 -11 4 -13 116 -10 126 3 188 10 305 35 l51 11 -28 23 c-31 27 -33 27 -224 12z"
       id="path62"
       style="fill:#512bd4;fill-opacity:1" />
    <path
       d="M7889 3284 c-29 -35 2 -175 52 -238 34 -44 46 -33 54 48 7 80 0 105 -52 174 -27 36 -35 39 -54 16z"
       id="path64"
       style="fill:#512bd4;fill-opacity:1" />
    <path
       d="M8259 3273 c-12 -31 -6 -139 13 -245 12 -64 14 -68 39 -68 23 0 27 5 32 38 4 20 11 57 16 82 6 25 10 66 11 91 0 42 -4 50 -45 88 -24 22 -47 41 -50 41 -3 0 -10 -12 -16 -27z"
       id="path66"
       style="fill:#512bd4;fill-opacity:1" />
    <path
       d="M6664 3260 c3 -19 -5 -75 -16 -123 -24 -106 -19 -141 26 -193 l34 -39 18 38 c17 37 17 40 -4 135 -27 118 -64 234 -58 182z"
       id="path68"
       style="fill:#512bd4;fill-opacity:1" />
    <path
       d="M7543 3183 c5 -71 21 -131 60 -237 l14 -38 12 48 c7 27 15 89 18 137 l6 88 -39 40 c-21 21 -47 39 -58 39 -18 0 -19 -5 -13 -77z"
       id="path70"
       style="fill:#512bd4;fill-opacity:1" />
    <path
       d="M7138 3220 c-21 -13 -41 -100 -36 -165 3 -48 4 -50 32 -50 26 0 34 7 58 54 30 57 36 117 16 143 -17 21 -49 29 -70 18z"
       id="path72"
       style="fill:#512bd4;fill-opacity:1" />
    <path
       d="M6183 3163 c2 -16 12 -62 21 -103 9 -41 14 -90 11 -108 -8 -45 1 -70 35 -87 l29 -15 12 40 c11 38 10 45 -26 121 -21 45 -40 103 -43 130 -4 41 -8 49 -24 49 -17 0 -19 -5 -15 -27z"
       id="path74"
       style="fill:#512bd4;fill-opacity:1" />
    <path
       d="M5832 3044 c-1 -20 11 -79 28 -132 16 -54 36 -119 44 -147 14 -48 14 -44 9 95 -6 150 -16 190 -52 210 -27 14 -26 14 -29 -26z"
       id="path76"
       style="fill:#512bd4;fill-opacity:1" />
    <path
       d="M5472 2998 c-33 -33 -4 -87 65 -122 32 -16 33 -16 39 9 5 20 -3 35 -36 75 -45 54 -50 56 -68 38z"
       id="path78"
       style="fill:#512bd4;fill-opacity:1" />
    <path
       d="M7984 2895 c10 -8 23 -12 29 -8 11 7 -12 23 -33 23 -12 -1 -11 -4 4 -15z"
       id="path80"
       style="fill:#512bd4;fill-opacity:1" />
    <path
       d="M7640 2802 c0 -16 28 -34 34 -23 4 6 -3 15 -14 21 -11 6 -20 7 -20 2z"
       id="path82"
       style="fill:#512bd4;fill-opacity:1" />
    <path
       d="M6890 2528 c0 -19 2 -20 10 -8 13 19 13 30 0 30 -5 0 -10 -10 -10 -22z"
       id="path84"
       style="fill:#512bd4;fill-opacity:1" />
    <path
       d="M951 4198 c-1 -16 4 -28 9 -28 12 0 12 8 0 35 -8 18 -9 17 -9 -7z"
       id="path86"
       style="fill:#512bd4;fill-opacity:1" />
    <path
       d="M3770 4688 c-18 -41 -18 -47 -3 -108 19 -77 16 -72 35 -65 14 5 33 68 42 135 4 31 -8 56 -35 70 -17 10 -22 6 -39 -32z"
       id="path88"
       style="fill:#512bd4;fill-opacity:1" />
    <path
       d="M4807 2743 c-13 -12 -7 -33 8 -33 8 0 15 9 15 20 0 20 -11 26 -23 13z"
       id="path90"
       style="fill:#512bd4;fill-opacity:1" />
    <path
       d="M4841 2681 c-15 -27 -13 -121 3 -150 l13 -23 22 28 c29 36 34 63 24 115 -7 34 -13 45 -30 47 -14 2 -26 -4 -32 -17z"
       id="path92"
       style="fill:#512bd4;fill-opacity:1" />
    <path
       d="M4446 2565 c-3 -8 -1 -15 4 -15 13 0 22 18 11 24 -5 3 -11 -1 -15 -9z"
       id="path94"
       style="fill:#512bd4;fill-opacity:1" />
    <path
       d="M4440 2315 c-7 -9 -10 -18 -7 -21 3 -3 10 4 17 15 13 25 8 27 -10 6z"
       id="path96"
       style="fill:#512bd4;fill-opacity:1" />
    <path
       d="M4832 2185 c-24 -61 -22 -73 22 -114 40 -37 60 -22 53 39 -5 39 -39 130 -50 130 -1 0 -12 -25 -25 -55z"
       id="path98"
       style="fill:#512bd4;fill-opacity:1" />
    <path
       d="M4912 2033 c4 -39 28 -42 28 -4 0 21 -5 31 -16 31 -11 0 -14 -8 -12 -27z"
       id="path100"
       style="fill:#512bd4;fill-opacity:1" />
    <path
       d="M5630 1955 c0 -16 6 -25 15 -25 9 0 15 9 15 25 0 16 -6 25 -15 25 -9 0 -15 -9 -15 -25z"
       id="path102"
       style="fill:#512bd4;fill-opacity:1" />
    <path
       d="M7173 1953 c-7 -2 -13 -16 -13 -29 0 -19 5 -24 26 -24 20 0 25 4 20 16 -3 9 -6 22 -6 30 0 14 -6 16 -27 7z"
       id="path104"
       style="fill:#512bd4;fill-opacity:1" />
    <path
       d="M5652 1776 c-37 -117 -23 -212 31 -204 30 4 33 57 9 178 l-19 95 -21 -69z"
       id="path106"
       style="fill:#512bd4;fill-opacity:1" />
    <path
       d="M8350 1709 c-14 -6 -37 -8 -52 -5 -25 5 -28 2 -28 -20 0 -32 62 -97 87 -92 15 3 19 15 21 66 1 34 1 62 0 61 -2 0 -14 -5 -28 -10z"
       id="path108"
       style="fill:#512bd4;fill-opacity:1" />
    <path
       d="M6900 1669 c0 -11 5 -19 12 -17 17 6 19 38 2 38 -8 0 -14 -9 -14 -21z"
       id="path110"
       style="fill:#512bd4;fill-opacity:1" />
    <path
       d="M8093 1621 c-12 -33 -19 -69 -16 -81 5 -18 12 -21 46 -18 58 4 67 25 37 88 -36 77 -43 78 -67 11z"
       id="path112"
       style="fill:#512bd4;fill-opacity:1" />
    <path
       d="M6160 1562 c0 -56 24 -84 67 -80 68 6 70 50 3 96 -51 34 -70 30 -70 -16z"
       id="path114"
       style="fill:#512bd4;fill-opacity:1" />
    <path
       d="M7700 1575 c0 -19 5 -25 23 -25 17 0 27 -9 38 -32 16 -38 49 -51 49 -20 0 19 -83 102 -101 102 -5 0 -9 -11 -9 -25z"
       id="path116"
       style="fill:#512bd4;fill-opacity:1" />
    <path
       d="M6881 1523 l-32 -66 28 -23 28 -23 14 32 c16 36 18 124 4 138 -5 5 -22 -18 -42 -58z"
       id="path118"
       style="fill:#512bd4;fill-opacity:1" />
    <path
       d="M4682 1531 c-51 -37 -55 -46 -54 -92 2 -53 18 -89 39 -88 22 0 103 96 103 122 0 10 -7 25 -15 33 -8 9 -15 24 -15 35 0 26 -10 24 -58 -10z"
       id="path120"
       style="fill:#512bd4;fill-opacity:1" />
    <path
       d="M7303 1514 c-3 -9 5 -36 18 -61 20 -36 29 -43 49 -41 45 5 39 78 -10 103 -37 19 -49 19 -57 -1z"
       id="path122"
       style="fill:#512bd4;fill-opacity:1" />
    <path
       d="M5040 1440 c0 -5 10 -10 23 -10 18 0 19 2 7 10 -19 13 -30 13 -30 0z"
       id="path124"
       style="fill:#512bd4;fill-opacity:1" />
    <path
       d="M5062 1335 c-8 -48 -7 -69 5 -105 22 -67 75 -161 87 -157 6 2 22 19 34 38 40 57 15 128 -86 249 l-29 34 -11 -59z"
       id="path126"
       style="fill:#512bd4;fill-opacity:1" />
    <path
       d="M4710 1331 l-35 -29 13 -46 c6 -25 12 -55 12 -66 0 -29 34 -25 59 6 11 15 19 29 18 33 -2 3 -9 19 -17 34 -11 22 -11 32 -3 47 9 13 9 22 0 34 -11 15 -16 14 -47 -13z"
       id="path128"
       style="fill:#512bd4;fill-opacity:1" />
    <path
       d="M7372 1338 c-58 -9 -64 -12 -76 -43 -19 -46 -30 -48 -51 -13 l-18 31 -96 -7 c-53 -3 -193 -13 -311 -21 -227 -16 -421 -18 -557 -7 l-83 7 0 -26 0 -26 199 -6 c183 -7 203 -9 253 -32 76 -35 128 -39 233 -21 115 20 228 20 280 -1 53 -21 104 -19 314 17 97 16 231 36 299 44 68 8 126 16 129 20 3 3 3 13 -1 22 -4 12 -13 14 -29 10 -12 -4 -52 -9 -89 -12 -63 -4 -67 -3 -70 18 -3 20 -12 23 -88 34 -145 20 -173 21 -238 12z m-542 -97 c0 -8 -55 -21 -92 -21 -10 0 -18 7 -18 15 0 12 13 15 55 15 30 0 55 -4 55 -9z m110 -1 c-36 -11 -50 -11 -50 0 0 6 17 10 38 9 33 -1 34 -2 12 -9z"
       id="path130"
       style="fill:#512bd4;fill-opacity:1" />
    <path
       d="M8346 1281 c-4 -6 -1 -21 6 -33 l13 -23 3 24 c4 26 -12 49 -22 32z"
       id="path132"
       style="fill:#512bd4;fill-opacity:1" />
    <path
       d="M8374 1137 c3 -10 6 -44 6 -75 0 -31 5 -64 10 -72 8 -13 12 -12 31 7 21 20 21 25 10 62 -6 23 -23 53 -37 68 -18 20 -24 23 -20 10z"
       id="path134"
       style="fill:#512bd4;fill-opacity:1" />
    <path
       d="M8437 963 c-4 -3 -7 -11 -7 -17 0 -6 5 -5 12 2 6 6 9 14 7 17 -3 3 -9 2 -12 -2z"
       id="path136"
       style="fill:#512bd4;fill-opacity:1" />
    <path
       d="M6040 650 c0 -22 20 -26 51 -10 30 16 23 30 -16 30 -28 0 -35 -4 -35 -20z"
       id="path138"
       style="fill:#512bd4;fill-opacity:1" />
    <path
       d="M7790 623 c-27 -5 -49 -29 -50 -54 0 -18 56 -34 83 -23 10 4 20 -4 29 -23 13 -27 17 -28 92 -31 87 -3 124 7 145 40 12 19 11 20 -5 14 -10 -4 -46 -10 -80 -13 -66 -6 -107 7 -98 32 4 8 3 26 0 40 -6 22 -11 25 -49 24 -23 -1 -53 -4 -67 -6z"
       id="path140"
       style="fill:#512bd4;fill-opacity:1" />
    <path
       d="M6067 593 c-21 -2 -37 -9 -35 -14 2 -6 7 -10 11 -10 4 1 36 1 72 1 51 0 65 3 65 15 0 15 -24 17 -113 8z"
       id="path142"
       style="fill:#512bd4;fill-opacity:1" />
    <path
       d="M6330 554 c-36 -8 -83 -12 -105 -9 -78 10 -71 -10 17 -46 73 -30 94 -34 173 -34 82 -1 98 -4 173 -38 46 -20 91 -37 102 -37 10 0 47 12 82 28 l63 27 -70 6 c-118 10 -185 28 -194 52 -7 18 -15 20 -66 18 -51 -2 -57 -1 -51 15 14 36 -22 41 -124 18z"
       id="path144"
       style="fill:#512bd4;fill-opacity:1" />
    <path
       d="M9431 8703 c78 -100 82 -104 69 -68 -20 53 -58 112 -84 129 -50 32 -45 15 15 -61z"
       id="path146"
       style="fill:#512bd4;fill-opacity:1" />
  </g>
  <path
     style="fill:#512bd4;fill-opacity:1;stroke-width:1.95494"
     d="m 845.25169,1702.1642 c -13.10497,-8.2448 -32.92246,-17.225 -61.31889,-27.7862 -33.68727,-12.5291 -49.40208,-19.8569 -57.87739,-26.9884 -5.47357,-4.6057 -6.30526,-4.7182 -23.26192,-3.1462 -17.54094,1.6262 -17.6122,1.6145 -28.19023,-4.6284 -16.15335,-9.5334 -38.13424,-32.5597 -61.02702,-63.9296 l -20.6865,-28.3467 -1.25183,-17.0041 c -0.78191,-10.6213 -3.78835,-25.3723 -8.00936,-39.2979 -11.24932,-37.1125 -13.11162,-40.9568 -21.79361,-44.9877 -8.67468,-4.0275 -6.56615,-1.076 -49.14283,-68.7905 -31.25102,-49.702 -32.19059,-50.9459 -42.39276,-56.1212 l -10.4334,-5.2927 -13.1456,7.9285 -13.14557,7.9284 -18.84925,-4.3131 C 308.18314,1303.0087 206.43854,1256.4904 148.28679,1205.5709 84.770401,1149.9539 55.170491,1081.561 59.297488,999.95418 c 2.954745,-58.4268 18.641727,-88.36252 83.471152,-159.28924 33.98627,-37.18273 49.44074,-55.50299 60.46265,-71.67451 5.75757,-8.44761 15.88543,-20.33996 22.50638,-26.4275 6.62093,-6.08753 14.47316,-14.26082 17.44941,-18.16287 l 5.41134,-7.09465 -19.44073,-35.59811 C 200.81565,629.80997 197.28093,623.09909 136.78434,506.33066 83.305459,403.10757 63.258306,365.31405 21.712473,289.39354 10.845833,269.53592 1.9549446,251.01401 1.9549446,248.23371 c 0,-11.71606 23.7879344,-39.05231 52.3527334,-60.16187 29.55003,-21.83765 75.443602,-48.09191 97.943332,-56.03028 4.66014,-1.64419 12.5575,-5.94462 17.5497,-9.55651 4.9922,-3.61188 15.67466,-10.35268 23.73881,-14.97955 8.06415,-4.62686 18.95569,-11.794322 24.20345,-15.927681 5.24773,-4.133361 10.19093,-7.5152 10.98485,-7.5152 0.79392,0 9.25633,-1.347003 18.80533,-2.993342 C 276.06305,76.15046 312.38037,65.814885 374.3719,44.972147 447.80241,20.283403 479.42184,11.244355 511.42421,5.7929928 534.6649,1.8341147 541.05701,1.5804922 593.3257,2.543346 c 78.99956,1.4552698 140.24946,9.853958 202.33677,27.744756 61.68264,17.774192 98.57695,39.43026 109.58976,64.326544 5.84061,13.203674 21.07041,121.417234 22.45361,159.541544 0.39572,10.9073 3.04571,26.32877 7.70035,44.81209 3.90334,15.49989 11.45594,48.38663 16.78353,73.08163 21.88271,101.4327 42.44207,176.9386 59.45228,218.34337 7.7084,18.76311 23.2593,52.21585 25.1539,54.11044 0.4327,0.43269 23.9904,-16.51818 52.3505,-37.66861 78.0417,-58.20207 101.1811,-73.07427 127.3414,-81.84489 16.2895,-5.46132 19.9537,-5.02226 25.6218,3.07014 2.7549,3.93313 2.3295,4.38177 -10.1632,10.71908 -7.1711,3.63778 -29.7532,18.58636 -50.1824,33.21908 -94.5238,67.70419 -161.4729,108.59768 -207.2241,126.57559 -15.65355,6.15106 -49.76294,16.6836 -63.79084,19.69777 -3.02911,0.65088 -5.72537,2.92145 -6.56079,5.52498 -1.25181,3.90123 -1.52916,3.99957 -2.36289,0.83789 -0.86025,-3.26229 -2.45633,-3.4597 -17.87601,-2.21104 -9.31228,0.7541 -20.73254,2.64203 -25.37833,4.19537 -6.3646,2.12806 -9.10764,2.27595 -11.12706,0.59997 -2.00458,-1.66365 -7.51314,-1.63846 -21.85471,0.1001 -20.96264,2.54103 -53.81576,1.5177 -99.32734,-3.09394 -32.65236,-3.30862 -67.44559,-3.73899 -67.44559,-0.83425 0,1.10898 1.31959,2.52268 2.93242,3.14158 1.61283,0.61891 2.93242,3.18558 2.93242,5.70372 0,4.53272 0.0733,4.54781 7.33104,1.51086 9.65265,-4.03905 29.8129,-4.91833 29.8129,-1.30027 0,3.38725 3.42941,3.29826 13.79194,-0.35785 5.71912,-2.01782 9.05771,-2.33128 10.41151,-0.97748 1.09604,1.09595 4.01618,1.99272 6.48918,1.99272 3.19307,0 4.49638,1.1333 4.49638,3.90989 0,4.41948 1.46177,4.74389 8.80151,1.95332 2.83039,-1.0761 9.92545,-1.39485 15.76682,-0.70832 8.6088,1.01181 10.62067,1.93792 10.62067,4.88899 0,4.27249 0.77048,4.42803 6.48209,1.30856 3.84727,-2.10125 16.84361,-3.44901 33.9801,-3.52389 3.43787,-0.0156 8.38461,-0.83861 10.99272,-1.83021 2.9219,-1.11092 5.44645,-1.09851 6.57727,0.0322 1.1437,1.1437 6.57796,1.05344 14.42159,-0.23952 6.92248,-1.14112 17.20488,-2.37027 22.84978,-2.73145 8.98442,-0.57483 10.26346,-0.19733 10.26346,3.02919 0,4.99269 2.33813,4.63343 7.81978,-1.20151 5.13998,-5.47126 9.77472,-6.3982 9.77472,-1.95494 0,4.04775 4.4009,3.66919 10.17856,-0.87553 2.73807,-2.15378 6.51053,-3.37134 8.68433,-2.80288 2.2076,0.57732 5.87569,-0.65144 8.61853,-2.88708 l 4.77517,-3.89214 4.42101,4.12441 4.42101,4.1244 6.72778,-6.52083 6.72779,-6.52084 2.36089,5.18156 c 1.29847,2.84986 3.04924,5.18156 3.89059,5.18156 0.84133,0 6.79447,-4.87424 13.22919,-10.83166 9.88031,-9.14742 11.97556,-10.33835 13.47491,-7.65916 1.56667,2.79948 2.89247,2.46405 11.27655,-2.85297 5.22562,-3.31398 10.44255,-6.02543 11.59305,-6.02543 1.1506,0 8.1961,-3.56699 15.6566,-7.92667 l 13.5645,-7.92666 3.3145,4.39411 3.3145,4.39413 7.3796,-8.22045 c 5.3021,-5.90618 8.4009,-7.89629 11.0071,-7.0691 2.4033,0.76275 5.9887,-0.92181 10.6237,-4.99144 4.1021,-3.60169 8.2194,-5.67335 9.9532,-5.00802 1.8106,0.69477 6.2587,-1.90867 11.4729,-6.71492 4.6837,-4.31732 10.1164,-7.84965 12.0727,-7.84965 1.9562,0 6.9298,-3.45427 11.0524,-7.67615 6.298,-6.44975 8.0593,-7.3241 11.024,-5.47261 2.9916,1.86834 4.7247,0.88 11.3929,-6.4972 5.5756,-6.16836 7.8879,-7.70501 7.9448,-5.27959 0.044,1.88164 0.5298,3.42116 1.0794,3.42116 0.5495,0 8.6589,-6.59794 18.0208,-14.66209 9.3619,-8.06414 18.2294,-14.66208 19.7057,-14.66208 1.4762,0 6.1341,-2.95314 10.3509,-6.56252 4.2167,-3.60939 13.1843,-9.36305 19.9278,-12.7859 6.7436,-3.42287 13.3895,-8.03019 14.7686,-10.23852 2.3538,-3.76907 2.7286,-3.81503 6.1155,-0.74989 3.4056,3.08201 4.029,2.88833 11.1095,-3.45118 4.1944,-3.75555 10.647,-7.29132 14.6369,-8.02052 6.8161,-1.24569 7.5494,-0.8197 16.3784,9.51484 l 9.2429,10.81891 -0.9568,26.86567 c -1.9194,53.89327 -25.8326,131.55531 -61.8858,200.98489 -19.1341,36.84742 -37.2393,63.01641 -60.3184,87.18324 -11.0276,11.54737 -20.0502,22.19042 -20.0502,23.65129 0,1.46089 12.756,43.03381 28.3467,92.38426 15.5907,49.3506 28.3467,92.5125 28.3467,95.9156 0,6.2906 -12.8688,48.7709 -19.3665,63.9294 -2.6007,6.0672 -6.5054,10.2725 -14.4147,15.5239 -20.2925,13.4735 -28.2511,39.7409 -23.0393,76.0418 2.6733,18.6204 11.3314,54.6628 13.7187,57.1092 0.8734,0.8949 32.2619,-12.0126 69.7523,-28.6835 99.315,-44.1625 133.2758,-57.822 152.5654,-61.3641 21.7869,-4.0003 28.2885,-2.1169 41.1079,11.9096 32.4942,35.554 36.9513,96.9377 8.1212,111.8464 -2.8491,1.4733 -17.3667,4.5267 -32.2612,6.7853 -24.3603,3.6941 -154.0073,26.9886 -205.8387,36.9844 -11.2239,2.1646 -20.985,4.6053 -21.6914,5.4239 -5.7117,6.6185 -11.6167,83.4524 -11.6509,151.5986 -0.01,19.5738 0.7515,25.3477 5.0623,38.3907 l 5.0739,15.3519 -11.1299,19.2802 c -6.1214,10.604 -12.1435,19.9385 -13.3824,20.7433 -4.6725,3.0352 -61.58,24.6858 -77.5179,29.492 -46.3106,13.9653 -70.76281,16.7573 -203.57608,23.2453 -7.95954,0.3887 -12.56795,-0.4396 -16.61703,-2.9871 z m 112.67118,-28.0068 c 9.91331,-4.4878 19.47805,-14.4451 25.63005,-26.6822 4.95827,-9.8625 9.30452,-15.0964 12.53612,-15.0964 1.30416,0 9.11566,5.2119 17.35876,11.5821 15.4526,11.9413 25.6964,15.7871 42.0517,15.7871 24.187,0 57.1699,-14.3898 77.663,-33.8829 18.68,-17.7685 19.6747,-27.8419 6.1001,-61.7796 -7.9044,-19.7615 -7.1383,-32.182 2.9977,-48.6036 l 7.1882,-11.6459 -1.2603,-46.183 c -1.1628,-42.6096 -1.5312,-46.183 -4.7608,-46.183 -1.9252,0 -4.3971,1.5395 -5.493,3.4212 -1.1059,1.8986 -2.0191,2.3336 -2.0521,0.9775 -0.086,-3.5384 -7.5888,-3.01 -22.4531,1.5811 -7.2509,2.2395 -25.5019,5.1521 -41.1473,6.5664 -26.3615,2.3829 -28.7411,2.9422 -38.1186,8.9597 l -10.0018,6.4182 -5.2614,-6.1817 -5.2613,-6.1817 -12.4719,2.2479 c -6.85964,1.2364 -14.06024,3.8362 -16.00141,5.7774 -3.75179,3.7518 -7.58954,15.2377 -7.79606,23.3327 -0.0993,3.8941 -1.1941,2.7262 -5.38699,-5.7471 -9.51522,-19.229 -22.35057,-23.3293 -40.22951,-12.8515 -8.75905,5.1331 -9.34679,5.2234 -12.92569,1.9845 -3.10326,-2.8084 -7.34281,-3.355 -24.60145,-3.172 l -20.85205,0.2212 -7.81813,7.0632 c -7.94413,7.1771 -11.13722,6.7771 -11.21487,-1.4048 -0.0219,-2.3028 -5.01717,-4.5696 -18.50551,-8.3974 l -18.4756,-5.2431 -7.87058,4.0152 -7.87059,4.0153 1.1369,-5.6845 c 1.40885,-7.0443 0.47962,-7.3696 -26.13976,-9.1502 -13.76342,-0.9207 -20.85052,-0.6539 -22.66669,0.8534 -1.96911,1.6343 -6.71163,1.3768 -18.61445,-1.0106 -15.20022,-3.0487 -16.3587,-3.0292 -23.97057,0.4033 l -7.99843,3.6067 0.72486,28.0321 c 0.68573,26.5195 0.52709,28.0015 -2.94014,27.4675 -2.59916,-0.4003 -5.23153,-4.8284 -9.05173,-15.2265 -2.96272,-8.0641 -10.91177,-26.5384 -17.6646,-41.0538 -18.13444,-38.9808 -23.14254,-51.2769 -22.0472,-54.1313 1.16841,-3.0448 3.76682,-3.3342 5.45222,-0.6072 2.81592,4.5563 4.46466,1.1177 5.75815,-12.0092 l 1.37599,-13.9641 -10.40938,-10.6232 c -10.56121,-10.7783 -18.55889,-16.187 -23.93524,-16.187 -1.6323,0 -6.56428,4.8684 -10.95995,10.8186 -8.16686,11.055 -8.78367,15.5638 -2.80769,20.5234 4.01713,3.3339 3.58664,4.8418 -2.12536,7.4444 -10.91571,4.9735 -21.66898,-7.5381 -21.04295,-24.4839 0.29489,-7.9824 0.008,-8.3709 -11.89826,-16.1283 -6.71023,-4.3719 -13.0665,-7.9489 -14.12506,-7.9489 -1.05854,0 -5.88569,2.512 -10.727,5.5823 -14.61172,9.2665 -30.69575,37.6434 -25.13439,44.3445 3.79533,4.5731 5.08521,3.5041 9.80591,-8.127 5.41592,-13.344 12.57432,-22.2503 17.88346,-22.2503 2.731,0 3.58005,0.9025 2.75864,2.9324 -0.65266,1.6128 -1.71777,4.2446 -2.36693,5.8483 -0.68685,1.6969 0.11867,3.4145 1.92684,4.1083 2.77005,1.063 2.79207,1.6422 0.20284,5.3388 -1.59739,2.2806 -2.90432,5.7412 -2.90432,7.6902 0,2.9259 0.67478,3.1826 3.87055,1.4722 3.56342,-1.9071 3.77359,-1.5865 2.64848,4.039 -0.8271,4.1355 -0.3637,6.641 1.43378,7.7519 1.46073,0.9027 3.61584,4.9924 4.78914,9.0881 1.48828,5.1952 3.10457,7.2801 5.34576,6.8957 1.76686,-0.3031 4.20827,1.3096 5.42534,3.5838 1.77945,3.3249 1.54867,4.8686 -1.17836,7.882 -1.86517,2.061 -4.7944,3.7142 -6.5094,3.6739 -4.45661,-0.105 -16.19615,-11.0682 -23.47177,-21.9198 -6.63721,-9.8993 -7.83225,-10.6198 -11.51198,-6.94 -6.85748,6.8575 1.17983,19.9007 21.58626,35.0312 8.5279,6.3231 17.08082,11.4965 19.0065,11.4965 1.92568,0 4.61481,1.3417 5.97586,2.9817 2.14907,2.5895 2.8878,2.6144 5.61546,0.1896 2.77135,-2.4636 4.57592,-1.7598 15.33896,5.982 10.36729,7.4571 11.90775,9.3165 10.26346,12.3889 -2.95869,5.5284 -2.32933,7.5191 2.01778,6.3823 3.56891,-0.9333 3.7586,-0.5238 1.95494,4.2201 -2.97366,7.8214 -2.49421,9.1083 2.88988,7.757 4.68516,-1.1759 4.88736,-0.8528 4.88736,7.8091 0,4.9696 1.01956,10.6683 2.26572,12.6637 1.9139,3.0646 1.09069,5.0336 -5.30136,12.6806 -4.16188,4.9789 -8.04055,9.0385 -8.61927,9.0213 -2.70552,-0.08 -18.67281,-38.8079 -18.92578,-45.9031 -0.25285,-7.0918 -1.65736,-15.3478 -3.75427,-22.0683 -0.61642,-1.9756 -2.0438,-1.8605 -6.68374,0.5389 -3.245,1.6781 -5.89997,3.9157 -5.89997,4.9724 0,1.0568 3.87656,15.3297 8.6146,31.7177 4.73803,16.3879 10.06453,37.7137 11.83668,47.3907 6.03136,32.9346 4.40266,30.2062 38.80775,65.0118 36.65998,37.0868 40.01816,38.9609 55.53931,30.9956 5.13736,-2.6365 12.37067,-7.0624 16.07402,-9.8354 4.87108,-3.6473 9.12903,-5.0418 15.39519,-5.0418 9.4183,0 9.39646,-0.065 5.07756,15.0826 -1.05852,3.7125 -0.0195,4.8135 7.28399,7.7162 4.68526,1.8623 31.90702,15.077 60.49279,29.3661 60.30756,30.1458 59.38318,29.9072 113.2187,29.2212 29.64499,-0.3778 35.38579,-0.9675 43.00878,-4.4185 z M 891.05153,1408.325 c 5.14645,-1.0293 6.54691,-2.7852 10.36584,-12.997 l 4.41549,-11.8069 9.26329,10.5533 c 7.74217,8.8204 10.17311,10.4435 14.80406,9.8843 8.85547,-1.0692 19.81045,-8.24 23.06449,-15.0974 3.86076,-8.136 3.81637,-15.0916 -0.24585,-38.5264 -2.4107,-13.9072 -2.72584,-19.6895 -1.15854,-21.2568 3.01781,-3.0178 12.1829,15.7192 20.00596,40.9 l 6.20967,19.9875 h 13.31343 c 12.09693,0 14.25173,-0.6454 23.58233,-7.0637 l 10.269,-7.0638 14.2185,4.1313 c 20.2454,5.8826 22.3757,5.6347 22.3757,-2.6042 0,-5.3913 1.0566,-7.2447 5.2935,-9.286 2.9113,-1.4027 5.9027,-4.7497 6.6474,-7.4377 0.7447,-2.6881 1.4417,-3.7877 1.5489,-2.4437 0.1071,1.344 1.9239,2.4437 4.0372,2.4437 4.5513,0 58.4983,-24.444 62.3611,-28.2565 2.2268,-2.1978 2.284,-7.7544 0.3458,-33.6182 -3.2512,-43.3833 -7.2609,-69.1144 -13.4163,-86.0955 l -5.2892,-14.5915 -25.4724,-10.1128 c -14.0098,-5.5621 -29.0572,-12.9539 -33.4386,-16.4264 -8.4846,-6.7243 -14.929,-19.1135 -17.2113,-33.0883 -1.1193,-6.854 -2.7923,-9.1441 -10.711,-14.6621 -34.8729,-24.3002 -39.33271,-27.9487 -35.8471,-29.3259 5.0602,-1.9993 25.6745,-1.8498 34.7603,0.252 4.6969,1.0866 9.595,3.9957 12.2651,7.2844 2.4449,3.0115 5.2778,5.2643 6.2952,5.0062 1.0174,-0.2581 2.7693,1.2486 3.893,3.3483 1.1992,2.2407 3.2421,3.3575 4.9457,2.7038 1.9872,-0.7625 2.9026,0.1546 2.9026,2.9081 0,2.212 1.0997,4.7254 2.4437,5.5852 1.344,0.8599 2.4437,3.3228 2.4437,5.4733 0,2.4979 1.5009,4.124 4.1561,4.5028 3.3702,0.4808 4.3484,2.2986 5.1728,9.613 0.6718,5.9596 2.3863,10.0698 5.0533,12.1142 2.2201,1.7018 5.3708,6.3174 7.0015,10.2569 2.17,5.2423 6.0975,9.0656 14.6488,14.2603 l 11.6839,7.0975 16.2182,-5.6887 c 8.9199,-3.1289 20.2874,-6.2846 25.2609,-7.0126 l 9.0428,-1.3238 5.0356,-17.9999 c 7.9972,-28.5861 13.0453,-49.5764 13.0453,-54.2433 0,-5.3132 -33.0665,-70.3011 -35.77,-70.3011 -1.0718,0 -5.8264,3.1774 -10.5658,7.061 -4.7393,3.8835 -9.0106,6.6673 -9.4918,6.1861 -0.4812,-0.4812 1.6821,-6.0779 4.8072,-12.4371 7.2832,-14.8203 11.6056,-34.49292 12.9118,-58.76459 l 1.0367,-19.26574 -33.837,-58.64834 -33.837,-58.64834 -12.6289,-1.56652 c -29.2358,-3.62644 -70.05443,1.93696 -113.30867,15.4435 -27.89175,8.70943 -47.39824,18.69611 -67.52792,34.572 -8.55648,6.74835 -20.39572,14.42022 -26.30943,17.04862 -20.19895,8.9776 -47.11704,24.41922 -62.1758,35.66728 -13.5871,10.14884 -15.99141,11.24072 -24.81923,11.2712 -8.90827,0.0307 -10.38125,-0.6422 -16.61703,-7.59203 l -6.84231,-7.62579 -43.98625,1.5255 c -24.19244,0.83902 -60.86347,2.17656 -81.49117,2.9723 l -37.50492,1.4468 -2.15341,5.19878 c -1.18437,2.85934 -4.65727,6.1439 -7.71754,7.29902 -8.58768,3.24149 -22.60686,22.5939 -36.29898,50.10797 -12.00078,24.11538 -16.64383,38.16098 -16.64383,50.34898 0,6.1414 1.68508,7.2114 5.44125,3.4553 5.19234,-5.1924 4.30565,0.6718 -1.34293,8.8817 -3.32929,4.839 -6.01939,9.5194 -5.97796,10.4009 0.0414,0.8815 2.88935,3.373 6.32874,5.5367 3.43939,2.1637 8.31162,7.6651 10.82715,12.2253 2.51554,4.5602 9.01714,13.153 14.44802,19.0953 9.58734,10.49 9.77302,10.916 6.38905,14.6552 -4.36381,4.8219 -5.92702,4.8131 -12.13327,-0.069 -3.9092,-3.075 -5.57884,-3.4257 -7.74611,-1.627 -4.37093,3.6275 -6.94512,9.5444 -9.64269,22.1639 l -2.50735,11.7297 6.78227,9.7747 c 10.76171,15.51 12.20737,17.0862 14.41804,15.7199 1.14994,-0.7107 2.08501,0.1359 2.08501,1.8877 0,1.747 0.91666,4.8892 2.03703,6.9826 1.67101,3.1223 2.75489,3.422 6.03226,1.668 5.53767,-2.9636 6.53284,-1.1292 2.62381,4.8367 -3.2232,4.9193 -3.15125,5.2163 2.94497,12.1595 5.27882,6.0123 6.0572,8.1389 5.01408,13.6992 -1.07495,5.7299 -0.71711,6.5821 2.76366,6.5821 2.97218,0 3.99847,1.2668 3.99847,4.9357 0,5.6962 7.5916,9.622 15.63373,8.0847 2.69054,-0.5143 7.16705,0.4088 9.94782,2.0515 4.55166,2.6887 6.14157,2.671 15.94109,-0.1777 5.98684,-1.7405 13.46225,-3.1645 16.61202,-3.1645 3.14977,0 6.33654,-0.6096 7.08169,-1.3548 0.74517,-0.7451 5.26111,-1.5818 10.03545,-1.8591 6.14152,-0.3569 11.69409,-2.5338 18.98308,-7.4425 5.66635,-3.8159 12.51352,-6.9692 15.21592,-7.0073 2.7024,-0.038 7.11278,-1.3265 9.80082,-2.8632 2.68805,-1.5366 7.57053,-2.825 10.84995,-2.8631 3.27942,-0.038 7.01825,-1.125 8.30851,-2.4152 1.82461,-1.8246 2.86726,-1.8246 4.69187,0 1.29026,1.2902 3.47702,2.3459 4.85946,2.3459 1.38244,0 11.93326,-8.9468 23.44626,-19.8819 20.78042,-19.7372 27.65688,-22.9003 16.59903,-7.6354 -3.17003,4.3761 -7.84053,13.8955 -10.37888,21.1542 -5.03496,14.398 -5.70221,15.1697 -45.22542,52.3043 -22.59161,21.2263 -22.88787,21.6177 -22.90655,30.2665 -0.01,4.8191 2.28679,15.5471 5.1049,23.8401 5.09844,15.0032 5.10814,15.1476 1.95495,29.1104 -1.74289,7.7178 -3.16891,15.1151 -3.16891,16.4385 0,2.6777 21.93239,6.9075 35.56559,6.8591 13.56545,-0.048 14.4183,-1.3523 10.66252,-16.3041 -3.63659,-14.4774 -3.98522,-18.855 -1.50156,-18.855 2.72439,0 5.93518,9.5051 8.80595,26.0688 1.46003,8.4241 3.86819,16.4184 5.35145,17.7651 3.86285,3.5071 22.94722,10.9045 28.13242,10.9045 5.82297,0 8.58038,-3.673 10.48376,-13.9648 l 1.57512,-8.517 1.43064,9.7747 c 3.48418,23.8055 4.02633,25.4452 8.21992,24.861 2.18444,-0.3042 6.08684,0.2293 8.67202,1.1856 7.86157,2.9082 28.35635,-3.6192 30.26721,-9.6398 1.85876,-5.8564 4.54253,-4.3767 9.10887,5.0222 2.33059,4.797 5.61812,9.0936 7.30563,9.548 4.92787,1.3267 28.4342,1.387 34.92159,0.09 z M 413.97487,1287.8198 c -0.55477,-6.7201 -5.02942,-25.4143 -9.94367,-41.5426 -4.91424,-16.1283 -12.3981,-42.6106 -16.63081,-58.8496 -7.88666,-30.2575 -12.24976,-41.7769 -13.52857,-35.7178 -0.98025,4.6444 27.62834,129.9525 32.73606,143.3868 1.03332,2.7179 3.34059,4.9416 5.12723,4.9416 2.78906,0 3.1058,-1.7279 2.23976,-12.2184 z m -228.25513,-72.7954 c 0,-0.5231 -4.66063,-6.4613 -10.35696,-13.1959 -14.98189,-17.7126 -26.66345,-33.2729 -35.58424,-47.3995 -4.30088,-6.8106 -9.47596,-14.2013 -11.50019,-16.4237 -2.14815,-2.3585 -3.99917,-7.8673 -4.44607,-13.2319 -0.42112,-5.0552 -1.63922,-10.2438 -2.7069,-11.5303 -1.06767,-1.2864 -1.39897,-3.752 -0.73623,-5.4791 0.66274,-1.7271 -0.56796,-6.897 -2.7349,-11.4887 -2.33213,-4.9418 -4.48863,-14.9301 -5.28462,-24.4769 -1.32246,-15.8612 -4.62595,-22.2189 -5.07897,-9.7747 l -0.2313,6.3535 -1.62296,-5.8648 c -1.20043,-4.338 -1.4979,-2.4308 -1.1426,7.3256 0.26419,7.2547 -0.11071,12.5331 -0.83311,11.7297 -2.12582,-2.3643 -3.655605,-31.7624 -1.65281,-31.7624 2.78846,0 2.13537,-3.858 -1.22132,-7.2147 -5.565223,-5.5652 -5.578333,-4.0396 -0.35601,41.4262 0.247,2.1504 1.32882,3.9234 2.40404,3.9398 4.28283,0.065 6.26899,3.0654 5.31922,8.0338 -0.69038,3.6114 -0.30764,4.7974 1.23964,3.8411 1.4917,-0.9219 2.23839,0.5779 2.23839,4.4959 0,3.2336 2.10741,12.7426 4.68314,21.1311 2.57573,8.3884 5.2373,17.6934 5.9146,20.6777 1.67719,7.3899 56.85062,69.8394 61.70232,69.8394 1.09331,0 1.98784,-0.4281 1.98784,-0.9512 z m 199.99179,-70.7158 c -0.58374,-1.5212 0.3124,-2.6209 2.13582,-2.6209 1.77026,0 3.14158,-1.6026 3.14158,-3.6715 0,-2.0193 1.74887,-4.8784 3.88641,-6.3535 4.85573,-3.3511 10.49017,-28.038 7.62231,-33.3967 -3.1892,-5.959 -5.16938,-3.971 -9.66062,9.6989 -2.3845,7.2577 -5.46641,15.4382 -6.84864,18.1789 -3.15805,6.2618 -5.4019,20.7664 -3.65084,23.5997 1.78096,2.8816 4.7377,-1.8811 3.37398,-5.4349 z m 150.07182,-20.2842 c 4.90071,-2.6228 4.76647,-4.7153 -0.78788,-12.2801 -6.75569,-9.2009 -12.48133,-24.2874 -14.0474,-37.0135 -0.80559,-6.5463 -2.34593,-11.2409 -3.68821,-11.2409 -4.08472,0 -23.2006,12.5481 -27.02207,17.7379 -2.70126,3.6685 -3.32221,6.5536 -2.29303,10.6541 1.8483,7.3643 22.21362,28.3014 27.52843,28.3014 2.23484,0 5.1585,1.3196 6.49703,2.9324 2.83369,3.4144 8.44186,3.7833 13.81313,0.9087 z M 92.759081,1025.8572 c -0.754483,-9.9458 -2.082454,-19.4572 -2.951044,-21.1365 -1.031567,-1.9943 2.14774,-12.72113 9.167563,-30.93083 8.54004,-22.15324 10.27102,-28.451 8.42974,-30.6696 -4.91921,-5.92728 -7.572567,-2.67101 -13.515105,16.58614 -7.973965,25.84012 -11.005982,41.22949 -8.447284,42.87519 1.09665,0.7054 2.637429,9.6385 3.423956,19.8513 0.786528,10.2129 1.838694,19.2301 2.338146,20.0382 2.440138,3.9482 2.812156,-0.029 1.554028,-16.6139 z m -6.741517,6.5135 c 0,-9.0543 -1.677069,-14.247 -4.114738,-12.7405 -2.020699,1.2489 -2.392753,17.1511 -0.446799,19.097 3.006224,3.0063 4.561537,0.8389 4.561537,-6.3565 z M 116.21597,920.29023 c 3.24433,-18.9084 33.65159,-68.35668 51.39216,-83.57393 11.89937,-10.20686 24.62363,-18.49328 27.49069,-17.90281 1.39525,0.28736 5.04716,-2.16489 8.11539,-5.44945 4.1845,-4.4795 7.30449,-5.97191 12.48482,-5.97191 5.9417,0 7.6897,-1.16037 12.51607,-8.30851 5.53831,-8.2026 5.73934,-8.29999 15.76877,-7.6402 10.75521,0.70754 11.33802,0.30032 8.13521,-5.68419 -1.85669,-3.46923 -1.32156,-3.78138 6.4826,-3.78138 7.31208,0 9.3826,-0.98976 14.74789,-7.04996 5.18035,-5.85132 7.11787,-6.83003 11.39566,-5.75637 4.10625,1.03061 6.4193,0.0673 11.37733,-4.7382 5.70156,-5.52616 7.5214,-6.09223 21.70937,-6.75287 12.31408,-0.57336 18.08896,-1.9626 28.19327,-6.78227 14.63808,-6.98222 14.77406,-7.00136 22.20612,-3.12525 5.23471,2.73012 5.94414,2.61617 11.18942,-1.79743 3.52637,-2.96724 7.07123,-4.32774 9.57215,-3.67374 4.8491,1.26808 9.97729,-2.5921 8.51298,-6.40803 -1.56182,-4.07008 2.09125,-3.4089 6.1902,1.1204 4.94263,5.46153 9.33875,4.87557 13.2631,-1.76784 5.76559,-9.76033 4.79701,-10.6574 -10.01999,-9.28032 -19.46255,1.80885 -47.18794,9.33334 -72.32321,19.62806 -17.27712,7.07621 -24.40704,9.01695 -33.15825,9.02551 -14.68067,0.0137 -23.23772,2.53474 -44.21782,13.02388 -56.97422,28.48468 -123.16393,88.61103 -145.88764,132.52351 -8.81407,17.03276 -9.57073,24.27998 -3.43471,32.89722 l 4.30548,6.04648 1.36754,-5.7447 c 0.75214,-3.15958 1.93357,-9.04365 2.6254,-13.0757 z m 651.0163,10.3985 c 0.61863,-1.00093 0.23067,-2.37244 -0.86209,-3.04779 -1.09275,-0.67536 -1.98683,0.14349 -1.98683,1.81985 0,3.43392 1.17309,3.93953 2.84892,1.22794 z M 1133.657,871.97561 c 2.4291,-3.65843 2.4977,-4.41665 0.3346,-3.69561 -1.4968,0.49894 -4.0968,2.97842 -5.7776,5.50995 -2.4291,3.65843 -2.4978,4.41665 -0.3347,3.69561 1.4969,-0.49894 4.0968,-2.97842 5.7777,-5.50995 z m -17.7502,-19.49756 c 0.4888,-1.46621 -0.2443,-2.19932 -1.7105,-1.71058 -1.4113,0.47042 -2.9508,2.00992 -3.4212,3.42115 -0.4887,1.46621 0.2444,2.19931 1.7106,1.71058 1.4112,-0.47042 2.9507,-2.00994 3.4211,-3.42115 z M 485.37854,732.71429 c 5.18573,1.95738 6.55192,1.6496 11.62483,-2.61895 5.88481,-4.95175 9.32729,-4.85831 9.32729,0.25321 0,5.14054 5.19382,5.04856 12.94353,-0.22924 l 7.58339,-5.16453 0.60877,4.95047 c 0.60185,4.89414 0.67107,4.91258 6.08357,1.62104 7.74954,-4.71277 24.67799,-4.29126 28.33167,0.70544 2.41019,3.29613 3.51745,3.46662 9.27081,1.42752 7.87624,-2.79147 27.66077,-2.79417 36.11021,-0.006 5.32948,1.75932 7.27121,1.28751 15.07945,-3.66399 4.92926,-3.12584 8.99443,-6.30179 9.03368,-7.05767 0.11749,-2.26136 -13.92065,-5.4454 -24.05972,-5.45707 -7.82996,-0.01 -9.64599,0.66588 -10.49146,3.89898 -1.24649,4.76661 -1.00746,4.7617 -9.94131,0.204 -15.40895,-7.86107 -21.83047,-8.43476 -68.58553,-6.12746 -46.76376,2.30773 -92.357,5.50901 -93.40644,6.55845 -0.34516,0.34516 -1.16415,3.31048 -1.81997,6.58957 l -1.19238,5.96197 12.41296,1.03143 c 11.19305,0.93007 12.82338,0.58498 16.58915,-3.51127 l 4.17617,-4.54269 5.43549,5.67343 5.43547,5.6734 6.787,-4.19459 c 5.78771,-3.577 7.65222,-3.86801 12.66337,-1.97652 z m 153.21374,-0.67184 c 0.63671,-1.6592 0.63036,-3.544 -0.0137,-4.18847 -1.69036,-1.69036 -7.2937,3.40549 -6.01668,5.47177 1.66853,2.69972 4.75433,2.0431 6.03079,-1.2833 z m 15.44657,-10.23218 c -1.63156,-1.63156 -4.996,1.8152 -4.93506,5.05578 0.0545,2.90241 0.40995,2.84611 2.91222,-0.46141 1.56753,-2.07195 2.47779,-4.13942 2.02284,-4.59437 z m -16.7269,2.6121 c 0,-0.47415 -0.87972,-1.4058 -1.95494,-2.07033 -1.07522,-0.66452 -1.95495,-0.27658 -1.95495,0.86209 0,1.13868 0.87973,2.07033 1.95495,2.07033 1.07522,0 1.95494,-0.38794 1.95494,-0.86209 z m 361.74741,-64.91529 c 5.14264,-3.40322 7.50034,-6.24689 6.88884,-8.30851 -15.03378,-50.68108 -40.32457,-127.88337 -42.65429,-130.20582 -2.78811,-2.77941 -0.10205,13.70386 3.30749,20.29734 1.48603,2.87366 3.69436,16.917 4.90738,31.20747 1.21304,14.29045 3.05108,30.44123 4.08452,35.89061 1.03347,5.44941 1.87902,14.27949 1.87902,19.62245 0,8.51386 4.56466,31.03031 7.13314,35.18621 1.70448,2.75789 6.5988,1.50849 14.4539,-3.68975 z M 399.36242,645.7403 c 14.80308,-7.62944 41.10981,-8.6215 67.41736,-2.54236 25.1161,5.8038 38.91374,6.15053 42.63526,1.0714 3.76958,-5.14476 3.49901,-8.19377 -1.13864,-12.83143 -3.57096,-3.57096 -5.61151,-3.81326 -22.9706,-2.72758 -16.36125,1.02328 -22.13721,0.47245 -40.90341,-3.90068 -25.28206,-5.89154 -31.85167,-6.20666 -43.88872,-2.10524 -10.72295,3.65367 -23.20936,13.60643 -23.20936,18.49987 0,11.22848 6.48542,12.56215 22.05811,4.53602 z m -51.3665,-10.34245 c 11.66797,-6.84133 21.10353,-10.71637 31.75208,-13.04007 8.33295,-1.81841 15.15082,-4.08232 15.15082,-5.03092 0,-1.60375 -15.07208,-9.17916 -31.47944,-15.82195 -5.28627,-2.14023 -7.33396,-4.30799 -8.21083,-8.69235 -0.78285,-3.91436 -4.4584,-8.4607 -11.14318,-13.7832 -5.48624,-4.3682 -12.18441,-11.19798 -14.88483,-15.17727 -6.5848,-9.70327 -20.91707,-26.24016 -22.74297,-26.24136 -3.22648,-0.002 -1.09125,5.01451 6.16341,14.48055 20.75477,27.08128 32.69256,62.20167 25.62917,75.39973 -2.54561,4.75654 -14.05959,11.77589 -19.31618,11.77589 -4.53336,0 -5.65861,2.98254 -1.7242,4.57011 7.19071,2.90151 15.21226,0.70405 30.80615,-8.43916 z m 920.76318,-64.6694 c 0,-2.21389 -0.8798,-3.48156 -1.955,-2.81703 -1.0752,0.66452 -1.9549,2.47589 -1.9549,4.02527 0,1.54937 0.8797,2.81703 1.9549,2.81703 1.0752,0 1.955,-1.81137 1.955,-4.02527 z M 303.01642,529.79 c 0,-1.07522 -0.87973,-1.95495 -1.95495,-1.95495 -1.07522,0 -1.95494,-1.75945 -1.95494,-3.90989 0,-2.15044 -0.93165,-3.90989 -2.07033,-3.90989 -1.13867,0 -1.57304,-0.80459 -0.96529,-1.78797 1.72129,-2.78509 -11.38788,-9.94169 -18.21078,-9.94169 -8.72671,0 -7.75947,4.533 1.89634,8.88715 4.41053,1.98887 10.34582,6.08125 13.18952,9.09415 5.17605,5.48405 10.07043,7.19631 10.07043,3.52309 z m 646.15676,-73.58492 c -6.0103,-27.80473 -12.32373,-57.15201 -14.02985,-65.21615 -1.70612,-8.06415 -3.90143,-15.52263 -4.87845,-16.57439 -2.12354,-2.28602 -0.17594,23.67422 2.63669,35.14636 3.45717,14.10074 7.13559,32.91484 10.17311,52.03244 1.64274,10.33911 4.43021,23.04993 6.19441,28.24625 3.34892,9.86398 8.59177,19.15969 10.00766,17.7438 0.45333,-0.45333 -4.09328,-23.57358 -10.10357,-51.37831 z m -671.57104,38.51129 c 0,-4.46581 -3.08221,-6.94607 -4.9255,-3.96353 -1.64224,2.65714 0.27056,7.75804 2.90921,7.75804 1.10896,0 2.01629,-1.70752 2.01629,-3.79451 z M 916.86903,179.85491 c 0,-1.07522 -1.31958,-1.95495 -2.93241,-1.95495 -1.61283,0 -2.93242,0.87973 -2.93242,1.95495 0,1.07522 1.31959,1.95494 2.93242,1.95494 1.61283,0 2.93241,-0.87972 2.93241,-1.95494 z"
     id="path12120"
     transform="scale(0.75)" />
</svg>
